<svg width="45" height="21" viewBox="0 0 45 21" fill="none" xmlns="http://www.w3.org/2000/svg">
<g filter="url(#filter0_b_1903_188)">
<path d="M9.1624 6.43286C9.59012 6.29029 10.0463 6.21425 10.5197 6.21425C12.5917 6.21425 14.3216 7.6856 14.717 9.6417L17.654 9.04289C16.9811 5.72 14.0422 3.21832 10.5197 3.21832C9.71178 3.21832 8.93808 3.34949 8.21191 3.59281L9.1624 6.43286Z" fill="white" fill-opacity="0.7"/>
</g>
<path d="M5.69702 15.9491L7.68353 13.7041C6.79768 12.919 6.23879 11.7727 6.23879 10.4953C6.23879 9.2197 6.79768 8.07342 7.68353 7.29022L5.69702 5.04327C4.19145 6.37775 3.24097 8.32625 3.24097 10.4953C3.24097 12.6662 4.19145 14.6147 5.69702 15.9491Z" fill="url(#paint0_linear_1903_188)" fill-opacity="0.5"/>
<path d="M14.717 11.3545C14.3197 13.3087 12.5917 14.7781 10.5216 14.7781C10.0463 14.7781 9.58822 14.7021 9.1624 14.5576L8.21191 17.4015C8.93808 17.6429 9.71368 17.7741 10.5216 17.7741C14.0403 17.7741 16.9773 15.2762 17.654 11.9571L14.717 11.3545Z" fill="white" fill-opacity="0.6"/>
<g filter="url(#filter1_b_1903_188)">
<path d="M20.2225 13.7972C20.1255 13.6413 19.9962 13.3923 19.9164 13.2079C19.4507 12.1282 19.4297 11.0104 19.8213 9.93825C20.2529 8.76155 21.0779 7.86239 22.1443 7.40236C23.4845 6.82636 24.9654 6.93852 26.2504 7.70081C27.0659 8.16845 27.6438 8.89082 28.083 9.91354C28.1381 10.0447 28.1875 10.1835 28.2369 10.3032L20.2225 13.7972ZM22.899 9.13794C21.9466 9.54665 21.4562 10.4401 21.5588 11.4856L25.5889 9.75006C24.895 8.93644 23.994 8.6665 22.899 9.13794ZM26.0907 12.9133C26.0888 12.9133 26.0888 12.9152 26.0888 12.9152L26.0052 12.8581C25.7638 13.2478 25.3893 13.5653 24.9159 13.7706C24.0149 14.1622 23.1804 14.0615 22.5797 13.5349L22.5245 13.6185C22.5245 13.6185 22.5245 13.6166 22.5226 13.6166L21.4999 15.1469C21.7546 15.3237 22.0265 15.472 22.3116 15.5917C23.4408 16.0613 24.5966 16.0385 25.7353 15.5442C26.5584 15.1868 27.2047 14.6431 27.6457 13.9531L26.0907 12.9133ZM31.0371 5.15161V13.6565L32.3601 14.1926L31.6093 15.9453L30.1493 15.337C29.8223 15.1944 29.598 14.9777 29.4307 14.7325C29.2692 14.4835 29.1494 14.1394 29.1494 13.6794V5.15161H31.0371ZM34.4626 11.4913C34.4626 10.7671 34.7839 10.1169 35.2895 9.67592L33.9322 8.16275C33.0122 8.97636 32.4324 10.1645 32.4324 11.4875C32.4305 12.8125 33.0103 14.0025 33.9284 14.8161L35.2838 13.303C34.7801 12.86 34.4626 12.2137 34.4626 11.4913ZM36.873 13.9037C36.6069 13.9037 36.3484 13.858 36.1088 13.7782L35.4606 15.7039C35.9035 15.8522 36.3769 15.9339 36.8711 15.9339C39.0192 15.9358 40.8118 14.4112 41.2282 12.3867L39.2359 11.9799C39.0097 13.0806 38.0383 13.9056 36.873 13.9037ZM36.8787 7.04878C36.3864 7.04878 35.913 7.12862 35.4701 7.27499L36.1127 9.20258C36.3541 9.12273 36.6107 9.07901 36.8768 9.07901C38.044 9.08091 39.0173 9.90974 39.2378 11.0123L41.2301 10.6093C40.8214 8.58096 39.0287 7.05068 36.8787 7.04878Z" fill="white" fill-opacity="0.6"/>
</g>
<defs>
<filter id="filter0_b_1903_188" x="4.21191" y="-0.781677" width="17.4421" height="14.4234" filterUnits="userSpaceOnUse" color-interpolation-filters="sRGB">
<feFlood flood-opacity="0" result="BackgroundImageFix"/>
<feGaussianBlur in="BackgroundImageFix" stdDeviation="2"/>
<feComposite in2="SourceAlpha" operator="in" result="effect1_backgroundBlur_1903_188"/>
<feBlend mode="normal" in="SourceGraphic" in2="effect1_backgroundBlur_1903_188" result="shape"/>
</filter>
<filter id="filter1_b_1903_188" x="15.5459" y="1.15161" width="29.6841" height="18.7937" filterUnits="userSpaceOnUse" color-interpolation-filters="sRGB">
<feFlood flood-opacity="0" result="BackgroundImageFix"/>
<feGaussianBlur in="BackgroundImageFix" stdDeviation="2"/>
<feComposite in2="SourceAlpha" operator="in" result="effect1_backgroundBlur_1903_188"/>
<feBlend mode="normal" in="SourceGraphic" in2="effect1_backgroundBlur_1903_188" result="shape"/>
</filter>
<linearGradient id="paint0_linear_1903_188" x1="5.46225" y1="5.04327" x2="5.46225" y2="15.9491" gradientUnits="userSpaceOnUse">
<stop stop-color="white"/>
<stop offset="1" stop-color="white" stop-opacity="0.75"/>
</linearGradient>
</defs>
</svg>
